<svg viewBox="0 0 24 24" fill="none" xmlns="http://www.w3.org/2000/svg">
<path d="M19.1429 6.74916H7.73661C6.97768 6.74916 6.89732 5.78353 7.54018 5.62416H19.1429C19.308 5.62416 19.4777 5.63353 19.6429 5.65697C19.4152 3.96478 17.9196 2.78822 16.3125 3.03197C16.2679 3.03666 16.2277 3.04603 16.183 3.05541L4.89286 5.07572C4.74107 5.09916 4.58482 5.12728 4.43304 5.16009H4.42411C4.36607 5.16947 4.3125 5.18353 4.25446 5.1976C2.52679 5.63353 2.02232 7.26478 2.02232 8.24916V9.38353C2.00893 9.50541 2 9.62728 2 9.74916V18.7492C2 20.4038 3.28125 21.7492 4.85714 21.7492H19.1429C20.7188 21.7492 22 20.4038 22 18.7492V9.74916C22 8.09447 20.7188 6.74916 19.1429 6.74916ZM17.0223 15.7492C16.2321 15.7492 15.5938 15.0788 15.5938 14.2492C15.5938 13.4195 16.2321 12.7492 17.0223 12.7492C17.8125 12.7492 18.4509 13.4195 18.4509 14.2492C18.4509 15.0788 17.8125 15.7492 17.0223 15.7492Z" fill="#003366"/>
</svg>
