<svg width="24" height="24" viewBox="0 0 24 24" fill="none" xmlns="http://www.w3.org/2000/svg">
<path d="M 17.989584 2.223959 L 8.677083 2.223959 C 4.635417 2.223959 2.223959 4.635417 2.223959 8.677083 L 2.223959 17.978125 C 2.223959 22.03125 4.635417 24.442708 8.677083 24.442708 L 17.978125 24.442708 C 22.020833 24.442708 24.432291 22.03125 24.432291 17.989584 L 24.432291 8.677083 C 24.442708 4.635417 22.03125 2.223959 17.989584 2.223959 Z M 13.333333 20.276041 C 11.34375 20.276041 9.786458 19.286459 8.734375 18.3125 L 8.734375 19.098959 C 8.734375 19.557291 8.354167 19.932291 7.901042 19.932291 C 7.44375 19.932291 7.067708 19.557291 7.067708 19.098959 L 7.067708 16.041667 C 7.067708 15.584375 7.44375 15.208333 7.901042 15.208333 L 10.65625 15.208333 C 11.114583 15.208333 11.489583 15.584375 11.489583 16.041667 C 11.489583 16.499999 11.114583 16.875 10.65625 16.875 L 9.65625 16.875 C 10.479167 17.695833 11.754167 18.609375 13.333333 18.609375 C 16.244792 18.609375 18.609375 16.244792 18.609375 13.333333 C 18.609375 12.875 18.984375 12.5 19.442708 12.5 C 19.901042 12.5 20.276041 12.875 20.276041 13.333333 C 20.276041 17.166666 17.166666 20.276041 13.333333 20.276041 Z M 20.276041 10.598959 C 20.276041 10.635417 20.276041 10.666666 20.276041 10.6875 C 20.265625 10.8125 20.234375 10.921875 20.177083 11.020833 C 20.119791 11.119792 20.046875 11.208333 19.9375 11.285417 C 19.864583 11.34375 19.776042 11.40625 19.677083 11.421875 C 19.599999 11.4375 19.520833 11.447916 19.442708 11.447916 L 16.75 11.447916 C 16.285417 11.447916 15.911458 11.073958 15.911458 10.609375 C 15.911458 10.145833 16.285417 9.8125 16.75 9.8125 L 17.666666 9.8125 C 16.772916 8.96875 15.34375 8.057291 13.354167 8.057291 C 10.442708 8.057291 8.078125 10.421875 8.078125 13.333333 C 8.078125 13.792708 7.703125 14.166666 7.244792 14.166666 C 6.78125 14.166666 6.389583 13.792708 6.389583 13.333333 C 6.389583 9.5 9.5 6.389583 13.333333 6.389583 C 15.75 6.389583 17.479167 7.421875 18.609375 8.411458 L 18.609375 7.567708 C 18.609375 7.102083 18.984375 6.729167 19.442708 6.729167 C 19.901042 6.729167 20.276041 7.102083 20.276041 7.567708 Z" fill="#0066CC"/>
</svg>
