<svg viewBox="0 0 48 48" fill="none" xmlns="http://www.w3.org/2000/svg">
    <path d="M0 24C0 10.7452 10.7452 0 24 0C37.2548 0 48 10.7452 48 24C48 37.2548 37.2548 48 24 48C10.7452 48 0 37.2548 0 24Z" fill="#FCE8EB"/>
    <path d="M24.5715 14.5713C19.0615 14.5713 14.5715 19.0613 14.5715 24.5713C14.5715 30.0813 19.0615 34.5713 24.5715 34.5713C30.0815 34.5713 34.5715 30.0813 34.5715 24.5713C34.5715 19.0613 30.0815 14.5713 24.5715 14.5713ZM23.8215 20.5713C23.8215 20.1613 24.1615 19.8213 24.5715 19.8213C24.9815 19.8213 25.3215 20.1613 25.3215 20.5713V25.5713C25.3215 25.9813 24.9815 26.3213 24.5715 26.3213C24.1615 26.3213 23.8215 25.9813 23.8215 25.5713V20.5713ZM25.4915 28.9513C25.4415 29.0813 25.3715 29.1813 25.2815 29.2813C25.1815 29.3713 25.0715 29.4413 24.9515 29.4913C24.8315 29.5413 24.7015 29.5713 24.5715 29.5713C24.4415 29.5713 24.3115 29.5413 24.1915 29.4913C24.0715 29.4413 23.9615 29.3713 23.8615 29.2813C23.7715 29.1813 23.7015 29.0813 23.6515 28.9513C23.6015 28.8313 23.5715 28.7013 23.5715 28.5713C23.5715 28.4413 23.6015 28.3113 23.6515 28.1913C23.7015 28.0713 23.7715 27.9613 23.8615 27.8613C23.9615 27.7713 24.0715 27.7013 24.1915 27.6513C24.4315 27.5513 24.7115 27.5513 24.9515 27.6513C25.0715 27.7013 25.1815 27.7713 25.2815 27.8613C25.3715 27.9613 25.4415 28.0713 25.4915 28.1913C25.5415 28.3113 25.5715 28.4413 25.5715 28.5713C25.5715 28.7013 25.5415 28.8313 25.4915 28.9513Z" fill="#BD192E"/>
</svg>
