<svg width="24" height="24" viewBox="0 0 24 24" fill="none" xmlns="http://www.w3.org/2000/svg">
<path d="M 13.492188 1.667969 L 6.507812 1.667969 C 3.476562 1.667969 1.667969 3.476562 1.667969 6.507812 L 1.667969 13.484375 C 1.667969 16.523438 3.476562 18.332031 6.507812 18.332031 L 13.484375 18.332031 C 16.515625 18.332031 18.324219 16.523438 18.324219 13.492188 L 18.324219 6.507812 C 18.332031 3.476562 16.523438 1.667969 13.492188 1.667969 Z M 10 15.207031 C 8.507812 15.207031 7.339844 14.464844 6.550781 13.734375 L 6.550781 14.324219 C 6.550781 14.667969 6.265625 14.949219 5.925781 14.949219 C 5.582031 14.949219 5.300781 14.667969 5.300781 14.324219 L 5.300781 12.03125 C 5.300781 11.691406 5.582031 11.40625 5.925781 11.40625 L 7.992188 11.40625 C 8.332031 11.40625 8.617188 11.691406 8.617188 12.03125 C 8.617188 12.375 8.332031 12.65625 7.992188 12.65625 L 7.242188 12.65625 C 7.859375 13.273438 8.816406 13.957031 10 13.957031 C 12.183594 13.957031 13.957031 12.183594 13.957031 10 C 13.957031 9.65625 14.242188 9.375 14.582031 9.375 C 14.925781 9.375 15.207031 9.65625 15.207031 10 C 15.207031 12.875 12.875 15.207031 10 15.207031 Z M 15.207031 7.949219 C 15.207031 7.976562 15.207031 8 15.207031 8.015625 C 15.199219 8.109375 15.175781 8.191406 15.132812 8.265625 C 15.089844 8.339844 15.035156 8.40625 14.957031 8.464844 C 14.898438 8.507812 14.832031 8.542969 14.757812 8.566406 C 14.699219 8.582031 14.640625 8.589844 14.582031 8.589844 L 12.558594 8.589844 C 12.214844 8.589844 11.933594 8.308594 11.933594 7.964844 C 11.933594 7.625 12.214844 7.339844 12.558594 7.339844 L 13.25 7.339844 C 12.582031 6.726562 11.507812 6.042969 10.015625 6.042969 C 7.832031 6.042969 6.058594 7.816406 6.058594 10 C 6.058594 10.339844 5.773438 10.625 5.433594 10.625 C 5.089844 10.625 4.792969 10.339844 4.792969 10 C 4.792969 7.125 7.125 4.792969 10 4.792969 C 11.792969 4.792969 13.109375 5.566406 13.957031 6.308594 L 13.957031 5.675781 C 13.957031 5.332031 14.242188 5.050781 14.582031 5.050781 C 14.925781 5.050781 15.207031 5.332031 15.207031 5.675781 Z M 15.207031 7.949219 " fill="#0066CC"/>
</svg>
