<svg xmlns="http://www.w3.org/2000/svg" fill="none" viewBox="0 0 24 24"><g stroke="#036" stroke-linecap="round" stroke-linejoin="round" stroke-width="1.5" clip-path="url(#a)"><path d="M7 18a2 2 0 1 0 4 0 2 2 0 0 0-4 0Z"/><path d="M11 18h7a2 2 0 0 0 2-2V9a2 2 0 0 0-2-2H8.5A5.5 5.5 0 0 0 3 12.5V16a2 2 0 0 0 2 2h2M8 7l7-3 1 3"/><path d="M13 11.5a.5.5 0 0 1 .5-.5h2a.5.5 0 0 1 .5.5v2a.5.5 0 0 1-.5.5h-2a.5.5 0 0 1-.5-.5v-2ZM20 16h2"/></g><defs><clipPath id="a"><path fill="#fff" d="M0 0h24v24H0z"/></clipPath></defs></svg>