<svg viewBox="0 0 24 24" fill="none" xmlns="http://www.w3.org/2000/svg">
    <path fill-rule="evenodd" clip-rule="evenodd" d="M2 12C2 6.47715 6.47715 2 12 2C17.5229 2 22 6.47716 22 12C22 17.5229 17.5229 22 12 22C6.47716 22 2 17.5229 2 12ZM12 3.33333C7.21353 3.33333 3.33333 7.21353 3.33333 12C3.33333 16.7865 7.21353 20.6667 12 20.6667C16.7865 20.6667 20.6667 16.7865 20.6667 12C20.6667 7.21353 16.7865 3.33333 12 3.33333Z" fill="#003366"/>
    <path fill-rule="evenodd" clip-rule="evenodd" d="M9.17944 16.3078C9.17944 15.9396 9.47792 15.6411 9.84611 15.6411H14.1538C14.522 15.6411 14.8205 15.9396 14.8205 16.3078C14.8205 16.676 14.522 16.9744 14.1538 16.9744H9.84611C9.47792 16.9744 9.17944 16.676 9.17944 16.3078Z" fill="#003366"/>
    <path fill-rule="evenodd" clip-rule="evenodd" d="M9.89746 11.2821C9.89746 10.914 10.1959 10.6155 10.5641 10.6155H12C12.3682 10.6155 12.6667 10.914 12.6667 11.2821V16.3078C12.6667 16.676 12.3682 16.9745 12 16.9745C11.6318 16.9745 11.3334 16.676 11.3334 16.3078V11.9488H10.5641C10.1959 11.9488 9.89746 11.6503 9.89746 11.2821Z" fill="#003366"/>
    <path fill-rule="evenodd" clip-rule="evenodd" d="M12.5619 7.69239C12.6282 7.58877 12.6667 7.46558 12.6667 7.33341C12.6667 6.96522 12.3682 6.66675 12 6.66675C11.4336 6.66675 10.9744 7.12594 10.9744 7.69239C10.9744 8.25883 11.4336 8.71803 12 8.71803C12.3682 8.71803 12.6667 8.41955 12.6667 8.05136C12.6667 7.9192 12.6282 7.79601 12.5619 7.69239Z" fill="#003366"/>
    <path fill-rule="evenodd" clip-rule="evenodd" d="M11.3333 7.33341C11.3333 6.96522 11.6317 6.66675 11.9999 6.66675C12.5664 6.66675 13.0256 7.12594 13.0256 7.69239C13.0256 8.25883 12.5664 8.71803 11.9999 8.71803C11.6317 8.71803 11.3333 8.41955 11.3333 8.05136C11.3333 7.9192 11.3717 7.79601 11.4381 7.69239C11.3717 7.58877 11.3333 7.46558 11.3333 7.33341Z" fill="#003366"/>
</svg>
