<svg viewBox="0 0 48 48" fill="none" xmlns="http://www.w3.org/2000/svg">
    <path d="M0 24C0 10.7452 10.7452 0 24 0C37.2548 0 48 10.7452 48 24C48 37.2548 37.2548 48 24 48C10.7452 48 0 37.2548 0 24Z" fill="#E6F9EF"/>
    <path d="M24.5715 14.5713C19.0615 14.5713 14.5715 19.0613 14.5715 24.5713C14.5715 30.0813 19.0615 34.5713 24.5715 34.5713C30.0815 34.5713 34.5715 30.0813 34.5715 24.5713C34.5715 19.0613 30.0815 14.5713 24.5715 14.5713ZM29.3515 22.2713L23.6815 27.9413C23.5415 28.0813 23.3515 28.1613 23.1515 28.1613C22.9515 28.1613 22.7615 28.0813 22.6215 27.9413L19.7915 25.1113C19.5015 24.8213 19.5015 24.3413 19.7915 24.0513C20.0815 23.7613 20.5615 23.7613 20.8515 24.0513L23.1515 26.3513L28.2915 21.2113C28.5815 20.9213 29.0615 20.9213 29.3515 21.2113C29.6415 21.5013 29.6415 21.9713 29.3515 22.2713Z" fill="#1D7748"/>
</svg>
