<svg viewBox="0 0 24 24" fill="none" xmlns="http://www.w3.org/2000/svg">
<path d="M8.25 12.0002C9.63071 12.0002 10.75 10.912 10.75 9.56961C10.75 8.22725 9.63071 7.13905 8.25 7.13905C6.86929 7.13905 5.75 8.22725 5.75 9.56961C5.75 10.912 6.86929 12.0002 8.25 12.0002Z" fill="#003366"/>
<path d="M13.25 8.96197C13.25 8.62638 13.5298 8.35433 13.875 8.35433H18.875C19.2202 8.35433 19.5 8.62638 19.5 8.96197C19.5 9.29756 19.2202 9.56961 18.875 9.56961H13.875C13.5298 9.56961 13.25 9.29756 13.25 8.96197Z" fill="#003366"/>
<path d="M13.25 12.0002C13.25 11.6646 13.5298 11.3925 13.875 11.3925H18.875C19.2202 11.3925 19.5 11.6646 19.5 12.0002C19.5 12.3358 19.2202 12.6078 18.875 12.6078H13.875C13.5298 12.6078 13.25 12.3358 13.25 12.0002Z" fill="#003366"/>
<path d="M14.5 15.0384C14.5 14.7028 14.7798 14.4307 15.125 14.4307H18.875C19.2202 14.4307 19.5 14.7028 19.5 15.0384C19.5 15.3739 19.2202 15.646 18.875 15.646H15.125C14.7798 15.646 14.5 15.3739 14.5 15.0384Z" fill="#003366"/>
<path d="M4.5 4.7085C3.11929 4.7085 2 5.79669 2 7.13905V16.8613C2 18.2036 3.11929 19.2918 4.5 19.2918H19.5C20.8807 19.2918 22 18.2036 22 16.8613V7.13905C22 5.79669 20.8807 4.7085 19.5 4.7085H4.5ZM3.25 7.13905C3.25 6.46787 3.80964 5.92377 4.5 5.92377H19.5C20.1904 5.92377 20.75 6.46787 20.75 7.13905V16.8613C20.75 17.5325 20.1904 18.0766 19.5 18.0766H13.1994C13.2327 17.8781 13.25 17.6752 13.25 17.4689C13.25 15.1198 11.0114 13.2154 8.25 13.2154C5.64211 13.2154 3.50054 14.9139 3.27047 17.0815C3.25702 17.01 3.25 16.9365 3.25 16.8613V7.13905Z" fill="#003366"/>
</svg>
